PathFileType	4	(X/Y/Z)	C:/Users/beibeiliu/ov580/test_trc\sequence.13_training_dense_right.trc
DataRate	CameraRate	NumFrames	NumMarkers	Units	OrigDataRate	OrigDataStartFrame	OrigNumFrames
120	120	18	19	mm	120	53	79
Frame#	Time	ThumbCMC			ThumbMCP			ThumbIP			ThumbTip			IndexMCP			IndexPIP			IndexTip			MiddleMCP			MiddlePIP			MiddleTip			RingMCP			RingPIP			RingTip			PinkyMCP			PinkyPIP			PinkyTip			BackHand1			BackHand2			BackHand3	
		X0	Y0	Z0	X1	Y1	Z1	X2	Y2	Z2	X3	Y3	Z3	X4	Y4	Z4	X5	Y5	Z5	X6	Y6	Z6	X7	Y7	Z7	X8	Y8	Z8	X9	Y9	Z9	X10	Y10	Z10	X11	Y11	Z11	X12	Y12	Z12	X13	Y13	Z13	X14	Y14	Z14	X15	Y15	Z15	X16	Y16	Z16	X17	Y17	Z17	X18	Y18	Z18	
52	0.433333	98.4576	99.563	33.5462	76.7519	128.812	33.7503	51.6954	129.728	30.9324	28.9058	124.065	33.542	58.9791	117.764	-18.5622	50.3548	133.518	-30.5144	34.7039	145.312	-42.9766	38.7787	107.278	-16.7901	28.3141	124.076	-26.1365	7.21215	138.457	-35.406	27.4181	100.988	-3.29867	14.8223	117.679	-8.33233	0.249707	134.206	-12.9107	21.5962	93.6289	18.4434	21.8479	114.302	31.6202	43.6843	113.307	45.3315	56.0117	64.3271	14.9145	75.5226	51.0353	32.5255	84.8243	71.2054	15.9278	
53	0.441667	100.894	98.5313	25.1989	87.7664	127.058	6.37004	66.343	132.368	-2.54636	36.796	127.54	-3.45392	74.4972	93.8762	-33.6154	66.5074	101.906	-52.4533	57.8678	112.015	-71.4119	53.59	90.5561	-33.2398	39.5695	101.647	-55.1056	26.7888	112.683	-70.0709	34.0101	92.0185	-21.7105	26.4394	105.059	-36.3738	22.0339	123.892	-52.414	25.4369	97.5667	0.26835	26.5524	121.968	1.82547	49.386	124.21	15.4663	55.4858	66.3387	17.8181	67.252	59.4125	38.7718	86.5555	67.2612	16.5831	
54	0.45	104.834	91.5799	17.6378	95.9231	110.007	-8.78887	75.6815	111.404	-27.2104	53.3879	110.385	-30.2781	88.8964	62.3618	-41.8104	87.0486	61.8886	-65.5984	82.5009	63.9088	-84.2871	67.943	59.1298	-41.2263	59.7311	59.6461	-66.8572	53.3597	63.4415	-87.0142	51.4653	65.8214	-33.2439	42.0065	70.037	-52.1961	40.0302	79.3439	-71.9816	37.5779	80.5937	-20.0458	41.7802	103.125	-25.928	58.4354	113.34	-5.8677	64.9171	59.7758	11.8218	69.9796	60.403	39.6404	93.2176	58.7155	15.9676	
55	0.458333	109.512	89.4744	13.0714	98.3326	99.1676	-17.8976	82.7105	98.2194	-34.2395	58.8524	86.897	-39.1038	110.53	49.1501	-38.0452	107.559	42.266	-59.6914	106.71	38.0188	-79.0743	89.0239	39.2586	-37.6929	85.8007	32.3991	-61.2744	77.942	27.0466	-87.3136	68.4352	42.586	-29.6931	68.7656	40.9453	-56.931	59.8081	40.9798	-76.132	53.542	55.6278	-22.2766	49.3441	77.4711	-36.4189	63.5637	95.6298	-25.4415	78.4885	47.188	12.7549	81.5207	56.8907	39.5946	108.461	57.6242	18.5503	
56	0.466667	109.515	94.5138	13.7972	95.09	100.153	-18.2231	82.4768	88.5334	-34.7802	64.9959	73.399	-41.9669	125.345	52.6529	-33.5902	129.47	47.9709	-51.9768	132.19	38.3434	-74.0151	111.693	37.2627	-31.8659	111.338	27.2409	-52.5437	111.725	17.8189	-77.45	93.8974	35.4148	-26.3232	90.6997	26.0016	-49.8237	87.5743	23.4349	-69.451	72.6222	41.0672	-21.7432	60.0971	56.3063	-37.361	61.2887	80.0978	-26.9018	93.2387	45.0196	18.0536	93.9206	54.1817	41.7168	115.882	62.6327	22.6578	
57	0.475	102.874	102.107	18.5088	91.1192	101.505	-17.238	82.7773	86.1772	-37.1339	74.8139	68.3563	-40.0524	139.124	72.6984	-26.1871	145.887	65.166	-46.451	152.735	58.5418	-67.2882	130.678	48.138	-26.9671	140.385	40.2503	-49.3201	144.473	30.2988	-69.2025	114.04	37.8372	-21.9609	119.523	31.8113	-43.8774	123.348	29.9581	-66.1708	89.6815	34.6786	-22.4442	80.0412	49.7753	-37.005	69.7733	74.4327	-26.3684	110.328	51.2995	20.8902	103.401	55.3611	41.9731	120.892	73.0329	27.7103	
58	0.483333	96.5397	104.181	20.0481	84.5886	105.342	-12.2132	83.7569	92.4478	-33.8109	84.4649	66.3862	-40.3514	141.295	91.1276	-20.754	154.101	93.1544	-41.4844	163.496	90.8333	-58.9221	142.557	68.5761	-21.4551	156.968	62.2355	-44.3625	170.549	61.331	-64.9718	132.487	55.0641	-20.5764	139.093	46.5325	-43.1791	145.446	46.9896	-60.4808	108.151	40.343	-21.3639	92.1488	51.0771	-36.9615	75.4034	69.1598	-28.1008	116.747	56.673	22.9135	107.148	59.8358	47.8034	120.224	84.0114	33.3383	
59	0.491667	88.2786	103.121	23.8333	78.6188	107.204	-11.1506	87.928	90.8426	-29.9171	92.1351	72.3835	-40.4977	136.803	113.933	-14.8452	148.476	115.954	-33.4788	161.569	117.827	-51.7283	148.028	90.6819	-20.6275	162.11	93.1536	-38.6095	175.297	95.1421	-55.1281	142.074	69.5311	-19.3223	151.76	69.1492	-39.8678	158.14	70.0774	-57.9664	122.314	50.879	-20.5837	103.952	55.7038	-37.4385	85.4577	68.7614	-28.2056	125.783	68.1399	19.9382	112.736	63.8714	47.5735	117.579	90.652	37.0389	
60	0.5	75.4475	100.725	26.3508	73.2157	101.203	-7.35527	82.3547	95.3169	-30.4221	97.3973	78.2559	-44.1016	124.7	130.224	-11.3714	132.265	142.615	-29.9653	142.49	152.727	-45.257	137.281	114.868	-13.5098	148.485	125.932	-31.7673	167.859	132.774	-52.9229	143.587	93.3279	-20.6494	149.646	98.3123	-38.4483	157.118	104.435	-57.7168	130.45	66.9068	-22.0573	109.664	72.4175	-37.8466	88.8814	68.63	-30.7084	128.495	79.5586	22.1161	117.289	70.1635	45.5416	112.278	99.5735	36.1682	
61	0.508333	69.1579	95.3585	21.7218	59.9303	95.1446	-11.3493	75.046	94.2429	-34.755	95.8166	85.1208	-41.8699	99.1884	138.397	-7.94612	108.108	153.068	-28.2205	109.105	166.983	-41.655	122.063	127.665	-14.5683	127.664	147.554	-31.9112	137.615	161.185	-48.5927	129.006	114.366	-19.9027	134.497	122.584	-36.4161	140.476	130.93	-55.2141	128.333	88.5136	-26.4293	114.209	81.0728	-41.2004	87.436	73.7708	-30.0787	123.184	92.6813	18.326	116.595	79.2418	41.4937	97.9678	105.394	35.5268	
62	0.516667	61.0833	88.4535	19.861	56.0901	87.9326	-13.5248	71.411	92.8539	-37.7597	92.0391	88.6094	-47.0772	82.1978	136.979	-12.7684	84.044	151.324	-29.6651	81.5581	169.922	-45.8104	105.006	139.288	-20.4897	104.469	153.475	-35.1933	113.431	170.795	-54.1973	117.663	120.618	-22.8704	116.442	135.799	-43.1936	120.794	145.775	-62.1406	125.331	96.9437	-27.5669	107.282	87.8569	-44.5051	88.4252	75.3573	-30.9081	113.798	99.6341	17.8534	113.822	84.5093	40.1207	89.3005	105.235	29.6586	
63	0.525	54.7036	81.1619	15.7079	50.6643	79.8054	-16.3433	61.6752	85.2756	-39.3293	87.6643	85.8325	-50.433	65.521	131.239	-19.2999	57.4827	147.986	-36.0726	60.0917	161.461	-54.0412	87.0806	134.019	-26.0696	85.0463	147.55	-41.6028	89.8336	168.151	-62.9471	103.843	121.1	-27.6402	102.799	132.394	-48.178	101.656	141.144	-66.1807	115.457	100.899	-30.7371	101.821	90.8686	-46.9058	87.9315	70.2927	-35.9358	104.727	105.907	12.249	105.265	88.4736	37.0058	76.5246	103.353	25.7325	
64	0.533333	50.1996	69.3396	19.9596	42.5573	69.897	-18.0115	52.2965	72.6253	-38.5108	78.1938	78.9111	-49.2177	47.1719	120.823	-19.8222	40.7603	136.504	-41.2953	40.2158	148.975	-57.6032	68.1183	126.914	-29.239	69.5899	139.459	-48.0394	65.8934	155.736	-66.1503	89.4482	116.975	-30.7996	88.6582	128.834	-54.6093	83.9559	133.741	-68.684	102.409	98.435	-33.053	92.7693	82.077	-49.1448	84.4313	61.545	-37.0855	95.2229	102.725	8.99079	97.7631	89.1855	35.0128	69.3027	96.8694	25.5365	
65	0.541667	41.7186	61.0487	20.5626	37.8426	57.6693	-12.4035	45.1276	62.1563	-35.4047	67.3775	66.5125	-46.7292	37.851	109.295	-20.2361	34.2841	122.825	-42.2837	28.2934	133.393	-56.3485	60.8383	118.856	-32.1617	56.6256	127.492	-48.4765	51.3327	141.171	-66.9362	75.7509	108.866	-32.9152	72.9372	116.433	-52.7614	69.0778	123.336	-72.3832	91.4805	89.815	-34.4002	84.4228	69.7051	-47.6118	75.797	54.1345	-34.3099	85.8447	94.2645	11.9175	87.669	81.6897	36.3783	61.5844	92.7662	25.1745	
66	0.55	36.3507	53.7511	21.9635	32.6228	47.754	-9.95047	41.1053	54.315	-36.176	62.8924	58.404	-44.9082	33.236	101.789	-23.886	25.1959	111.288	-39.0933	19.4334	125.244	-59.4922	53.8081	107.064	-29.3495	49.6999	118.481	-49.1869	46.9508	133.404	-71.0927	72.2187	101.474	-34.9179	68.9151	108.038	-55.7579	64.2604	112.282	-71.5304	87.5342	82.6784	-32.8602	80.3286	67.189	-47.7566	73.6566	43.2385	-34.575	81.969	89.8808	9.3886	84.2777	76.7873	34.2087	56.2798	82.6928	27.4387	
67	0.558333	33.0678	51.0556	23.2488	29.1915	45.0717	-9.54023	39.8882	51.0945	-32.9065	56.136	51.9414	-47.8172	31.7137	97.8281	-24.6787	23.0986	106.958	-43.2575	20.5775	118.418	-62.2738	48.0033	104.045	-33.9863	48.1336	112.916	-51.2015	45.6328	125.507	-71.4431	71.8467	94.6002	-31.6578	66.693	100.735	-53.0863	63.3226	105.397	-73.3289	88.5325	78.6593	-32.5772	75.3782	61.7241	-49.7918	70.0127	41.1729	-41.7658	78.4906	84.1623	11.7744	84.6877	74.2103	36.692	51.2197	81.8154	25.6059	
68	0.566667	32.9166	55.0959	24.0462	25.5446	48.036	-4.54258	27.3973	48.6929	-32.9465	43.4698	50.7346	-50.7282	32.019	97.7495	-25.2447	26.7044	106.876	-45.3005	17.0939	114.357	-65.5443	51.6995	105.494	-37.8946	48.3684	111.027	-55.9579	44.8782	121.721	-78.7691	72.1055	94.9856	-36.5864	64.8171	98.4056	-56.7669	59.946	103.319	-79.4018	85.9764	79.8445	-34.5815	77.6231	69.8064	-50.9576	64.9909	44.6137	-51.3495	76.3872	86.1779	10.454	82.5592	78.2439	31.9099	55.7664	85.2558	23.0268	
69	0.575	34.5345	66.1528	22.2591	20.5547	56.5958	-0.0634077	17.0215	56.6879	-28.0999	23.2014	52.8661	-46.0376	26.2984	102.631	-31.2998	21.0966	106.829	-51.5017	14.2473	108.385	-72.87	48.4426	105.572	-39.8058	43.136	109.787	-61.6973	44.2192	112.682	-88.9257	69.9348	95.8559	-38.264	62.7826	97.3205	-59.8109	62.8257	97.5935	-84.2342	83.469	83.4297	-37.4864	83.3633	74.2625	-55.1255	71.3717	57.0773	-65.6791	78.1646	92.2317	4.42803	78.8002	83.3894	33.1025	52.397	88.7951	24.5263	
